<svg width="32" height="32" fill="none" xmlns="http://www.w3.org/2000/svg"><rect width="32" height="32" rx="16" fill="#fff"/><g clip-path="url(#prefix__clip0_4_9)"><path d="M27.459 16.106a.757.757 0 01-.307-.065l-6.438-2.883a.751.751 0 010-1.37l6.438-2.873a.752.752 0 01.99.379.752.752 0 01-.38.991l-4.904 2.189 4.906 2.197a.75.75 0 01-.305 1.435z" fill="#67BECE"/><path d="M18.686 26.565c-7.078 0-13.266-4.778-15.045-11.62a.75.75 0 111.45-.378 14.044 14.044 0 0013.595 10.498.75.75 0 110 1.5z" fill="#3F54A3"/><path d="M16.102 20.336a.75.75 0 01-.75-.75V5.33a.75.75 0 111.5 0v14.257a.75.75 0 01-.75.749z" fill="#67BECE"/></g><defs><clipPath id="prefix__clip0_4_9"><path fill="#fff" transform="translate(3 4)" d="M0 0h26v23H0z"/></clipPath></defs></svg>